# xmcd
#
# Track frame offsets:
#	150
#	23255
#	47017
#	72540
#	104485
#	126342
#	147455
#	170470
#	188352
#	204892
#	221295
#	239192
#
# Disc length: 3398 seconds
#
# Revision: 1
# Processed by: cddbd v1.5.1PL2 Copyright (c) Steve Scherf et al.
# Submitted via: CDRider 2.1
#
DISCID=ab0d440c
DTITLE=Various Artist - Vi swinger med de bedste
DYEAR=2001
DGENRE=Blues
TTITLE0=Give Me Five Minutes More - Cahn/Styne
TTITLE1=Savoy Blues - Ory
TTITLE2=Pass Me Not Gentle Saviour - Trad.
TTITLE3=It's A Sin To Tell A Lie - Mayhew
TTITLE4=Float Me Down The River - Hugh/LaRocca
TTITLE5=Sunday In New Orleans - O.Lindgreen
TTITLE6=Winin' Boy Blues - Trad.
TTITLE7=Canal Street Blues - Oliver
TTITLE8=Drifting and Dreaming - E. van Alstyne
TTITLE9=Blues for Ory - O.Lindgreen
TTITLE10=Song of The Wanderer - Moret
TTITLE11=Yaka Hula Hicky Dula - Goetz/Young/Wendling
EXTD=
EXTT0=
EXTT1=
EXTT2=
EXTT3=
EXTT4=
EXTT5=
EXTT6=
EXTT7=
EXTT8=
EXTT9=
EXTT10=
EXTT11=
PLAYORDER=
